<svg xmlns="http://www.w3.org/2000/svg" width="32" height="31.385" viewBox="0 0 32 31.385">
  <path id="full-screen_1_" data-name="full-screen (1)" d="M11.144.33A1.9,1.9,0,0,0,9.292,2.236V9.624H1.95a1.919,1.919,0,0,0-1.427.6,1.95,1.95,0,0,0,0,2.56,1.919,1.919,0,0,0,1.427.6h9.223A1.9,1.9,0,0,0,13.054,11.5V2.236A1.9,1.9,0,0,0,11.144.33ZM20.8.307a1.9,1.9,0,0,0-1.852,1.91v9.219a1.9,1.9,0,0,0,1.881,1.881h9.267a1.912,1.912,0,0,0,1.427-.6,1.948,1.948,0,0,0,0-2.56,1.922,1.922,0,0,0-1.427-.6H22.708V2.217A1.9,1.9,0,0,0,20.8.307Zm.03,18.306a1.9,1.9,0,0,0-1.881,1.881v9.267a1.919,1.919,0,0,0,.6,1.427,1.882,1.882,0,0,0,3.161-1.427V22.375h7.34a1.882,1.882,0,1,0,0-3.762Zm-18.921.069a1.918,1.918,0,0,0-1.427.6,1.95,1.95,0,0,0,0,2.56,1.916,1.916,0,0,0,1.427.6H9.292v7.341a1.919,1.919,0,0,0,.6,1.427,1.947,1.947,0,0,0,2.56,0,1.919,1.919,0,0,0,.6-1.427V20.563a1.9,1.9,0,0,0-1.881-1.881Z" transform="translate(0 -0.307)"/>
</svg>
