<svg xmlns="http://www.w3.org/2000/svg" width="31.385" height="31.385" viewBox="0 0 31.385 31.385">
  <path id="expand" d="M11.107,1.962A1.962,1.962,0,0,1,9.146,3.923H3.923V9.146A1.962,1.962,0,1,1,0,9.146V1.962A1.962,1.962,0,0,1,1.962,0H9.146A1.962,1.962,0,0,1,11.107,1.962Zm-1.962,25.5H3.923V22.239a1.962,1.962,0,1,0-3.923,0v7.184a1.962,1.962,0,0,0,1.962,1.962H9.146a1.962,1.962,0,0,0,0-3.923Zm20.278-7.184a1.962,1.962,0,0,0-1.962,1.962v5.223H22.239a1.962,1.962,0,0,0,0,3.923h7.184a1.962,1.962,0,0,0,1.962-1.962V22.239A1.962,1.962,0,0,0,29.424,20.278ZM29.424,0H22.239a1.962,1.962,0,1,0,0,3.923h5.223V9.146a1.962,1.962,0,1,0,3.923,0V1.962A1.962,1.962,0,0,0,29.424,0Z"/>
</svg>
